<svg xmlns="http://www.w3.org/2000/svg" width="1024" height="1024" viewBox="0 0 100 100"><rect width="100" height="100" rx="24" fill="#062019"/><g transform="translate(50 50) scale(1) translate(-50 -50)">
  <mask id="dial-ring" maskUnits="userSpaceOnUse" x="0" y="0" width="100" height="100">
    <circle cx="50" cy="50" r="29" fill="#fff"/>
    <circle cx="50" cy="50" r="19" fill="#000"/>
    <g stroke="#000" stroke-width="2.6" stroke-linecap="round"><line x1="50.00" y1="28.00" x2="50.00" y2="22.50"/><line x1="65.56" y1="34.44" x2="69.45" y2="30.55"/><line x1="72.00" y1="50.00" x2="77.50" y2="50.00"/><line x1="65.56" y1="65.56" x2="69.45" y2="69.45"/><line x1="50.00" y1="72.00" x2="50.00" y2="77.50"/><line x1="34.44" y1="65.56" x2="30.55" y2="69.45"/><line x1="28.00" y1="50.00" x2="22.50" y2="50.00"/><line x1="34.44" y1="34.44" x2="30.55" y2="30.55"/></g>
  </mask>
  <circle cx="50" cy="50" r="29" fill="#3DDC97" mask="url(#dial-ring)"/>
  <path d="M50 50 L61 39" stroke="#F5B83D" stroke-width="6" stroke-linecap="round"/>
  <circle cx="50" cy="50" r="5.5" fill="#F5B83D"/></g></svg>
